<svg xmlns="http://www.w3.org/2000/svg" viewBox="0 0 841.9 595.3">
  <g fill="#61DAFB">
    <path d="M666.3 296.5c0-25.5-4.7-49.5-13.3-72.3 19.1-33.5 28.3-64.7 26.5-91.6-2.7-41-31.8-70.7-77.4-81.9-20.3-5-41.4-4.3-63.5.3-1.6-.3-3.2-.7-4.8-1C501.4 21.5 444.3 1.3 382.4 1.3c-60.5 0-116.7 18.3-159.6 51.3-9.7 7.3-19.5 15.2-29.5 23.7-22.2 18.8-41.2 38.4-56.1 58.8-33.1 44.5-44.3 91.6-44.3 139.5s11.2 95 44.3 139.5c14.9 20.4 33.9 39.9 56.1 58.8 10 8.5 19.8 16.4 29.5 23.7 42.9 33 99.1 51.3 159.6 51.3 61.9 0 119-20.2 165.1-59.1 1.6.3 3.2.7 4.8 1 22.1 4.6 43.2 5.3 63.5.3 45.6-11.2 74.7-40.9 77.4-81.9 1.8-27-7.4-58.1-26.5-91.6 8.6-22.8 13.3-46.8 13.3-72.3z"/>
  </g>
</svg>
